ModelForces
version=1
nRows=4
nColumns=141
inDegrees=no

This file contains the forces exerted on a model during a simulation.

A force is a generalized force, meaning that it can be either a force (N) or a torque (Nm).

Units are S.I. units (second, meters, Newtons, ...)
Angles are in degrees.

endheader
time	glut_med1_r	glut_med2_r	glut_med3_r	glut_min1_r	glut_min2_r	glut_min3_r	semimem_r	semiten_r	bifemlh_r	bifemsh_r	sar_r	add_long_r	add_brev_r	add_mag1_r	add_mag2_r	add_mag3_r	tfl_r	pect_r	grac_r	glut_max1_r	glut_max2_r	glut_max3_r	iliacus_r	psoas_r	quad_fem_r	gem_r	peri_r	rect_fem_r	vas_med_r	vas_int_r	vas_lat_r	med_gas_r	lat_gas_r	soleus_r	tib_post_r	flex_dig_r	flex_hal_r	tib_ant_r	per_brev_r	per_long_r	per_tert_r	ext_dig_r	ext_hal_r	glut_med1_l	glut_med2_l	glut_med3_l	glut_min1_l	glut_min2_l	glut_min3_l	semimem_l	semiten_l	bifemlh_l	bifemsh_l	sar_l	add_long_l	add_brev_l	add_mag1_l	add_mag2_l	add_mag3_l	tfl_l	pect_l	grac_l	glut_max1_l	glut_max2_l	glut_max3_l	iliacus_l	psoas_l	quad_fem_l	gem_l	peri_l	rect_fem_l	vas_med_l	vas_int_l	vas_lat_l	med_gas_l	lat_gas_l	soleus_l	tib_post_l	flex_dig_l	flex_hal_l	tib_ant_l	per_brev_l	per_long_l	per_tert_l	ext_dig_l	ext_hal_l	ercspn_r	ercspn_l	intobl_r	intobl_l	extobl_r	extobl_l	contactForce_femur_lat_meniscii_l.femur_lat_l.force.X	contactForce_femur_lat_meniscii_l.femur_lat_l.force.Y	contactForce_femur_lat_meniscii_l.femur_lat_l.force.Z	contactForce_femur_lat_meniscii_l.femur_lat_l.torque.X	contactForce_femur_lat_meniscii_l.femur_lat_l.torque.Y	contactForce_femur_lat_meniscii_l.femur_lat_l.torque.Z	contactForce_femur_lat_meniscii_l.meniscus_lat_l.force.X	contactForce_femur_lat_meniscii_l.meniscus_lat_l.force.Y	contactForce_femur_lat_meniscii_l.meniscus_lat_l.force.Z	contactForce_femur_lat_meniscii_l.meniscus_lat_l.torque.X	contactForce_femur_lat_meniscii_l.meniscus_lat_l.torque.Y	contactForce_femur_lat_meniscii_l.meniscus_lat_l.torque.Z	contactForce_femur_med_meniscii_l.femur_med_l.force.X	contactForce_femur_med_meniscii_l.femur_med_l.force.Y	contactForce_femur_med_meniscii_l.femur_med_l.force.Z	contactForce_femur_med_meniscii_l.femur_med_l.torque.X	contactForce_femur_med_meniscii_l.femur_med_l.torque.Y	contactForce_femur_med_meniscii_l.femur_med_l.torque.Z	contactForce_femur_med_meniscii_l.meniscus_med_l.force.X	contactForce_femur_med_meniscii_l.meniscus_med_l.force.Y	contactForce_femur_med_meniscii_l.meniscus_med_l.force.Z	contactForce_femur_med_meniscii_l.meniscus_med_l.torque.X	contactForce_femur_med_meniscii_l.meniscus_med_l.torque.Y	contactForce_femur_med_meniscii_l.meniscus_med_l.torque.Z	contactForce_femur_lat_meniscii_r.femur_lat_r.force.X	contactForce_femur_lat_meniscii_r.femur_lat_r.force.Y	contactForce_femur_lat_meniscii_r.femur_lat_r.force.Z	contactForce_femur_lat_meniscii_r.femur_lat_r.torque.X	contactForce_femur_lat_meniscii_r.femur_lat_r.torque.Y	contactForce_femur_lat_meniscii_r.femur_lat_r.torque.Z	contactForce_femur_lat_meniscii_r.meniscus_lat_r.force.X	contactForce_femur_lat_meniscii_r.meniscus_lat_r.force.Y	contactForce_femur_lat_meniscii_r.meniscus_lat_r.force.Z	contactForce_femur_lat_meniscii_r.meniscus_lat_r.torque.X	contactForce_femur_lat_meniscii_r.meniscus_lat_r.torque.Y	contactForce_femur_lat_meniscii_r.meniscus_lat_r.torque.Z	contactForce_femur_med_meniscii_r.femur_med_r.force.X	contactForce_femur_med_meniscii_r.femur_med_r.force.Y	contactForce_femur_med_meniscii_r.femur_med_r.force.Z	contactForce_femur_med_meniscii_r.femur_med_r.torque.X	contactForce_femur_med_meniscii_r.femur_med_r.torque.Y	contactForce_femur_med_meniscii_r.femur_med_r.torque.Z	contactForce_femur_med_meniscii_r.meniscus_med_r.force.X	contactForce_femur_med_meniscii_r.meniscus_med_r.force.Y	contactForce_femur_med_meniscii_r.meniscus_med_r.force.Z	contactForce_femur_med_meniscii_r.meniscus_med_r.torque.X	contactForce_femur_med_meniscii_r.meniscus_med_r.torque.Y	contactForce_femur_med_meniscii_r.meniscus_med_r.torque.Z
      0.74381689	      9.53433901	      5.34275597	      4.75202665	      0.00000000	      5.61365736	      2.76318484	      8.21519006	      4.06905109	      6.87010741	      6.82894141	      1.47481844	      6.00050136	      4.49438962	      3.01946920	      2.64487360	      4.46372099	      5.83671088	      2.26775962	      1.54275460	      3.35696811	      5.22742717	      4.00651060	     25.89528078	     14.64457261	      2.28234519	      0.79512508	      1.77037463	     10.76701836	      7.33761693	      7.21481501	      8.38779022	      4.04973528	      2.17451186	      5.46557117	     13.82670569	      3.01039642	      2.29139874	     22.16300065	      4.15000751	      8.80900556	     14.63111436	     13.19718679	      3.33400717	      9.39362246	      5.30645411	      4.72669240	      6.24399659	      5.47953739	      2.72529828	      8.10313323	      4.04965033	      6.76733897	      6.75555835	      1.49245118	      6.06450590	      4.46515124	      3.07418244	      2.67328823	      4.48185449	      5.77871031	      2.28683218	      1.53808331	      3.35209067	      5.22090073	      4.04371533	     25.77012087	     14.58324631	      2.24403139	      0.81538550	      1.81066503	     10.58093366	      7.18577475	      7.86421807	      8.22907560	      3.91656903	      2.15777754	      5.55390179	     14.00025310	      3.04464584	      2.29519971	     22.01574839	      4.13781609	      8.80588110	     14.63761616	     13.21213351	      3.33615131	     25.00586796	     25.00586796	      8.99986773	      8.99986773	     26.80449029	     26.80449029	      0.16836517	      0.39146468	     -0.21035974	      0.09056975	     -0.00378057	      0.06542727	     -0.16836517	     -0.39146468	      0.21035974	     -0.01548283	      0.00458467	     -0.00383373	     -1.68717699	     17.94867457	     -3.75539653	      1.02349942	      0.00529936	     -0.42609116	      1.68717699	    -17.94867457	      3.75539653	      0.15132821	     -0.06186894	     -0.37209117	      0.49205267	      1.07735431	      0.57146602	     -0.24630421	      0.01119026	      0.19097957	     -0.49205267	     -1.07735431	     -0.57146602	      0.04180333	     -0.01337974	     -0.01076928	     -1.63018380	     17.52422684	      3.37025363	     -0.88271855	     -0.00333745	     -0.41223568	      1.63018380	    -17.52422684	     -3.37025363	     -0.16108087	      0.05625562	     -0.36780499
      0.74388957	      9.53326868	      5.34276164	      4.75220345	      0.00000000	      5.61339480	      2.76316170	      8.21644948	      4.06938868	      6.87082886	      6.82962893	      1.47524990	      6.00072595	      4.49124532	      3.01974720	      2.64501104	      4.46379031	      5.83690626	      2.26780514	      1.54275146	      3.35700642	      5.22754796	      4.00683412	     25.89503709	     14.64438931	      2.27849083	      0.79530734	      1.77057159	     10.76642657	      7.33649341	      7.21355183	      8.38638878	      4.05028001	      2.17526074	      5.46635470	     13.82989142	      3.01055907	      2.29162795	     22.16278764	      4.14936566	      8.80832730	     14.63081656	     13.19817114	      3.33388073	      9.39340443	      5.30642838	      4.72667731	      6.24124395	      5.47947352	      2.72527433	      8.10449572	      4.05004892	      6.76810283	      6.75629814	      1.49083910	      6.06459093	      4.46737214	      3.07427807	      2.67335100	      4.48192280	      5.77883302	      2.28685855	      1.53809451	      3.35209488	      5.22092918	      4.04383741	     25.76991850	     14.58307508	      2.24471745	      0.81539110	      1.81062822	     10.58039316	      7.18480338	      7.86286785	      8.22801334	      3.91726926	      2.15845803	      5.55455832	     14.00350942	      3.04481333	      2.29548828	     22.01549921	      4.13723130	      8.80523654	     14.63739288	     13.21302218	      3.33596861	     25.00586199	     25.00586199	      8.99986539	      8.99986539	     26.80448819	     26.80448819	      0.16821008	      0.39187208	     -0.21030647	      0.09055344	     -0.00377791	      0.06536103	     -0.16821008	     -0.39187208	      0.21030647	     -0.01549249	      0.00458026	     -0.00382975	     -1.68567324	     17.94913793	     -3.75418600	      1.02299954	      0.00533950	     -0.42541293	      1.68567324	    -17.94913793	      3.75418600	      0.15138798	     -0.06186482	     -0.37215395	      0.49166747	      1.07688348	      0.57126853	     -0.24622017	      0.01118530	      0.19082579	     -0.49166747	     -1.07688348	     -0.57126853	      0.04178670	     -0.01337121	     -0.01075765	     -1.63198589	     17.52334691	      3.37260641	     -0.88377308	     -0.00333504	     -0.41299107	      1.63198589	    -17.52334691	     -3.37260641	     -0.16097595	      0.05628998	     -0.36769996
      0.74425299	      9.52835625	      5.34279375	      4.75280865	      0.00000000	      5.61236785	      2.76304943	      8.22275159	      4.07107774	      6.87442574	      6.83293379	      1.47689884	      6.00175880	      4.47859916	      3.02096747	      2.64564883	      4.46413826	      5.83787560	      2.26796224	      1.54277168	      3.35716547	      5.22811797	      4.00834265	     25.89384423	     14.64347133	      2.26197261	      0.79604951	      1.77144977	     10.76343323	      7.33080362	      7.20712168	      8.37931232	      4.05306059	      2.17897242	      5.47020444	     13.84586835	      3.01138516	      2.29283921	     22.16175238	      4.14616097	      8.80491639	     14.62918190	     13.20293065	      3.33319975	      9.39230811	      5.30629574	      4.72660425	      6.23039534	      5.47915471	      2.72514914	      8.11133720	      4.05204927	      6.77192331	      6.75993824	      1.48475987	      6.06502529	      4.47632590	      3.07476905	      2.67367025	      4.48226648	      5.77945435	      2.28699465	      1.53819189	      3.35211791	      5.22107375	      4.04445354	     25.76890727	     14.58221729	      2.24759451	      0.81541997	      1.81044186	     10.57767679	      7.17993987	      7.85609128	      8.22269866	      3.92075147	      2.16185079	      5.55779256	     14.01980683	      3.04566085	      2.29699509	     22.01427517	      4.13432079	      8.80200588	     14.63608282	     13.21729223	      3.33500321	     25.00583224	     25.00583224	      8.99985373	      8.99985373	     26.80447771	     26.80447771	      0.16741411	      0.39385487	     -0.21000686	      0.09045770	     -0.00376404	      0.06502205	     -0.16741411	     -0.39385487	      0.21000686	     -0.01553857	      0.00455761	     -0.00380943	     -1.69534993	     17.94694331	     -3.75084983	      1.02179288	      0.00495292	     -0.42941994	      1.69534993	    -17.94694331	      3.75084983	      0.15150826	     -0.06153927	     -0.37165400	      0.48977412	      1.07452680	      0.57023528	     -0.24578063	      0.01115996	      0.19007068	     -0.48977412	     -1.07452680	     -0.57023528	      0.04170184	     -0.01332890	     -0.01070070	     -1.64082918	     17.51545567	      3.39185526	     -0.89235590	     -0.00341355	     -0.41673754	      1.64082918	    -17.51545567	     -3.39185526	     -0.16007525	      0.05661459	     -0.36711082
      0.74607007	      9.51336606	      5.34283190	      4.75051652	      0.00000000	      5.61250089	      2.76246285	      8.25442681	      4.07957363	      6.89206047	      6.84692054	      1.47979804	      6.00515688	      4.45308277	      3.02379715	      2.64783680	      4.46590989	      5.84251398	      2.26756328	      1.54343686	      3.35728579	      5.23013325	      4.01349917	     25.88851303	     14.63892584	      2.21821031	      0.79639353	      1.77340225	     10.74758516	      7.30097902	      7.17265751	      8.34295263	      4.06798815	      2.19670082	      5.48790104	     13.92668646	      3.01582567	      2.30049822	     22.15720294	      4.13035817	      8.78749449	     14.61919490	     13.22262734	      3.32855915	      9.38672853	      5.30555784	      4.72625170	      6.21148612	      5.47760729	      2.72441287	      8.14629193	      4.06224535	      6.79105004	      6.77705131	      1.47531810	      6.06738003	      4.49429777	      3.07742929	      2.67535594	      4.48401566	      5.78271544	      2.28774506	      1.53933450	      3.35225200	      5.22180602	      4.04760209	     25.76392691	     14.57792727	      2.25426235	      0.81556795	      1.80944974	     10.56381589	      7.15569383	      7.82172525	      8.19619440	      3.93769522	      2.17854283	      5.57279231	     14.10147645	      3.05014887	      2.30611110	     22.00864037	      4.12016782	      8.78574209	     14.62704752	     13.23425393	      3.32886051	     25.00568556	     25.00568556	      8.99979624	      8.99979624	     26.80442607	     26.80442607	      0.16303792	      0.40131996	     -0.21147139	      0.09121623	     -0.00373609	      0.06319663	     -0.16303792	     -0.40131996	      0.21147139	     -0.01582799	      0.00445558	     -0.00370922	     -1.68409954	     17.94136269	     -3.74845104	      1.02179175	      0.00538191	     -0.42387367	      1.68409954	    -17.94136269	      3.74845104	      0.15149332	     -0.06149205	     -0.37182065	      0.48142707	      1.06154154	      0.57062142	     -0.24591968	      0.01111403	      0.18678329	     -0.48142707	     -1.06154154	     -0.57062142	      0.04145864	     -0.01316658	     -0.01046332	     -1.67233547	     17.48681204	      3.46465737	     -0.92494566	     -0.00378491	     -0.42988617	      1.67233547	    -17.48681204	     -3.46465737	     -0.15670452	      0.05782325	     -0.36495151
